<svg width="80" height="32" viewBox="0 0 120 48" fill="none" xmlns="http://www.w3.org/2000/svg"><path d="M0 38.06h29.058V9H0v29.06z" fill="#F39100"/><path d="M11.537 23.493c0 1.497-.328 2.648-2.009 2.648-1.881 0-2.082-1.352-2.082-2.447v-8.589l-2.412.532v8.404c0 3.197 2.228 4.42 4.384 4.42 2.814 0 4.53-1.808 4.53-4.074v-9.282l-2.41.532m8.345 10.705c-1.553 0-2.686-1.296-2.686-2.812 0-1.517 1.133-2.815 2.686-2.815s2.685 1.298 2.685 2.815c0 1.516-1.132 2.812-2.685 2.812zm.148-7.736c-.972 0-1.857.294-2.608.816v-1.366l-2.326.563v12.838l2.32-.531V27.64c.749.518 1.647.82 2.614.82 2.615 0 4.734-2.206 4.734-4.927 0-2.722-2.12-4.927-4.734-4.927z" fill="#fff"/><path d="M112.915 16.07h.258c.084 0 .237 0 .237.22 0 .084-.038.23-.244.23h-.251v-.45zm.008.707h.281c.115 0 .145.046.168.138 0 .023.053.434.061.511h.342c-.045-.077-.068-.298-.084-.427-.029-.206-.045-.35-.266-.365.113-.04.305-.1.305-.396 0-.428-.373-.428-.564-.428h-.557v1.616h.314" fill="#4E5C5A"/><path d="M113.147 15.41a1.21 1.21 0 011.212 1.204c0 .66-.542 1.212-1.212 1.212a1.209 1.209 0 010-2.417zm.004 2.648c.793 0 1.439-.647 1.439-1.44 0-.815-.662-1.44-1.439-1.44-.771 0-1.441.625-1.441 1.44 0 .8.656 1.44 1.441 1.44zm-42.42-7.531s-3.113 3.85-3.245 5.224c0 0 1.064.28 4.3-3.79a3.773 3.773 0 00.239-.303h-.001c.456-.654.306-1.11-1.293-1.13zM95.22 23.263c-2.415-2.109-7.108 4.305-9.044 6.826-2.457 2.61-.042-3.16.351-4.033 4.432-8.38 8.867-6.778 8.867-6.778.524-1.377-4.17-1.238-4.74-1.194-4.431 1.653-7.2 9.62-8.032 12.143-.746 2.84 2.194 2.333 2.724 1.97 4.471-6.464 5.137-6.55 5.66-6.738 1.27.093 0 4.768.084 5.223 2.108-.685 4.13-7.054 4.13-7.42zm19.26 4.211c-.898.43-6.461 3.314-7.482 4.007h-.001s-.28.155-.401.3a.15.15 0 00-.041.066c-.032.077.007.142.203.166l.006.001a1.9 1.9 0 00.212.044s7.637-3.985 8.604-4.216c.348-.044.17-.778-1.1-.368z" fill="#4E5C5A"/><path d="M89.433 16.71c3.246-1.788 6.75-3.481 6.75-3.481s-2.816-2.214-5.529 0c-2.677 2.164-6.71 5.569-14.318 17.93l-.002.002c-.302.488-.572.64-.786.652-.557 0-.77-.997-.797-1.138-.08-.55.034-1.148.195-2.417.541-4.22 2.768-8.766.945-10.183v-.005s-.677-.561-2.138-.332c0 0 .135 2.496.153 3.716-.085 3.037-.29 7.021-.362 8.225-.007.391-.211 1.907.384 2.634l.03.035c.038.043.077.083.12.119.377.34 1.412 1.027 2.566-.345.116-.13.247-.29.396-.483a6.91 6.91 0 00.242-.324 48.7 48.7 0 00.825-1.182c1.534-2.199 7.144-11.135 11.326-13.422zm16.643-6.21l.017-.02c.145-.191.226-.325.271-.41l.001-.002v-.001a.826.826 0 00.05-.108c.02-.121.42-1.011-2.063-.903-2.096.093-2.185 1.693-2.163 2.192l-.001-.002s-.014.938-.772 2.608h-.001c-2.085 4.578-9.332 20.657-9.652 23.847 0 0-.013.08-.01.155v.022h.001c.004.053.018.102.05.116.043.02.133-.079.21-.18a2.37 2.37 0 00.108-.148l.029-.043c.257-.394.734-1.247 1.662-3.044 1.846-3.62 11.759-23.224 11.759-23.224s.203-.388.504-.855zm13.892 18.361c-.168-.438-.885-.368-.885-.368l-.004.003c-1.772-.007-6.092 2.041-7.84 2.907 0 0-.097.043-.219.109-.321.177-.828.532-.283.794.142.056.319.079.487.087.274.011.528-.016.581-.016.132-.41 4.341-1.695 6.451-2.288a7.613 7.613 0 001.037-.385l.005-.001c.311-.134.837-.404.67-.842zm-62.795-3.858c-5.131 5.817-11.102 8.75-13.383 9.85-.905.497-1.447.766-1.78.9-.024.01-.045.017-.073.03l-.055.02a1.677 1.677 0 01-.066.023c-.518.127-.245-.572-.214-.667 2.266-4.784 15.266-10.43 15.266-10.43.22-.092.394.088.305.274zm7.022-6.872c-.482 1.376-1.668 4.17-1.973 4.217-.354.044-.66-.14-1.538-.825-1.14-.917-2.28-2.84-9.871-1.602-.31.028-.648-.684.877-1.698 1.361-.907 4.782-3.665 11.322-4.994 0 0-1.184-3.89-3.073-3.024-1.307.803-11.042 7.516-12.157 9.532-.826 1.271-.257 3.035 2.418 1.995 1.669-.674 6.97-1.892 8.931.294.077.09.173.297-.052.664-.197.293-.555.631-1.162.802-1.372.33-13.77 4.246-18.87 11.32-.138.207-.452.772-.201 1.331.343.772 1.18 1.691 3.25.857 2.48-.998 7.618-3.062 18.719-12.593.329-.276.837-.687.305.735-.262.64-2.936 6.275-1.489 7.055 1.373.427 2.763.64 3.03-1.1.26-1.514 1.488-7.377 5-10.812.174-.364-2.414-3.894-3.466-2.154zm44.483 1.409c.371-.18.972-.358 1.329.139.189.334.137.826-.004 1.267-.01.023-.402.952-1.831 1.805-1.697.992-4.227 2.146-4.617 2.115.973-2.768 3.942-4.664 5.123-5.326zm-5.475 6.012s4.72-1.371 7.052-3.238c1.678-1.222 1.425-2.846 1.423-2.848-.024-.677-.364-1.374-1.671-1.565-.659-.044-5.006-.64-7.899 5.269-.961 1.71-3.922 6.691-3.38 8.363v.008c.255.659.759.918.759.918 2.287 1.037 6.53-2.199 8.051-3.457 0 0 1.772-1.32 1.882-1.397.663-.47 1.118-.819 1.154-.907.046-.274-.436-.596-2.806 1.1-1.359.947-3.195 2.239-4.293 2.871-.164.09-.866.446-1.62.454-.577-.026-1.037-.363-.319-1.95.789-2.061 1.404-3.621 1.667-3.621z" fill="#4E5C5A"/></svg>